<?xml version="1.0" standalone="no"?>
<!DOCTYPE svg PUBLIC "-//W3C//DTD SVG 20010904//EN"
 "http://www.w3.org/TR/2001/REC-SVG-20010904/DTD/svg10.dtd">
<svg version="1.0" xmlns="http://www.w3.org/2000/svg"
 width="500.000000pt" height="500.000000pt" viewBox="0 0 500.000000 500.000000"
 preserveAspectRatio="xMidYMid meet">
<metadata>
Created by potrace 1.14, written by Peter Selinger 2001-2017
</metadata>
<g transform="translate(0.000000,500.000000) scale(0.100000,-0.100000)"
fill="#000000" stroke="none">
<path d="M3085 4714 c-81 -13 -200 -46 -245 -69 -84 -43 -90 -77 -25 -146 25
-26 45 -55 45 -63 0 -33 -402 -1311 -420 -1336 -11 -16 -40 -41 -64 -56 -80
-50 -82 -104 -5 -124 27 -7 157 -10 384 -8 331 3 345 4 372 24 41 31 41 58 -1
104 -27 30 -36 49 -36 74 0 40 150 525 187 603 43 93 133 145 188 109 45 -30
42 -49 -54 -297 -49 -129 -94 -263 -100 -297 -31 -195 89 -325 315 -339 234
-15 430 92 459 249 13 71 -13 112 -46 72 -33 -40 -89 -36 -89 6 0 10 39 142
86 292 92 289 104 357 85 449 -22 105 -112 201 -215 231 -23 7 -80 12 -127 11
-150 0 -268 -50 -372 -156 -32 -32 -49 -44 -45 -32 3 11 35 116 72 233 75 241
82 298 43 367 -16 30 -37 48 -81 69 -53 27 -69 30 -170 32 -61 1 -124 0 -141
-2z"/>
<path d="M1681 4199 c-459 -53 -811 -405 -811 -809 0 -185 98 -348 252 -420
124 -58 204 -73 403 -74 208 -1 296 16 440 83 242 113 399 292 468 531 66 228
34 401 -101 535 -91 90 -211 137 -399 155 -113 11 -149 11 -252 -1z m159 -229
c31 -31 26 -115 -14 -272 -92 -356 -207 -598 -285 -598 -33 0 -62 33 -67 75
-8 57 28 219 91 414 66 202 120 315 175 365 45 41 71 45 100 16z"/>
<path d="M1296 2555 c-83 -16 -158 -45 -188 -72 -25 -23 -23 -60 5 -78 55 -35
54 -43 -38 -343 -115 -373 -107 -355 -166 -397 -56 -40 -63 -70 -19 -92 34
-17 530 -17 580 0 46 16 52 52 15 87 -17 16 -25 34 -25 56 0 33 122 438 146
485 35 68 113 99 149 59 22 -24 21 -29 -61 -243 -79 -205 -89 -270 -54 -342
26 -53 83 -99 144 -117 69 -19 202 -13 270 12 63 24 128 76 152 121 16 32 19
119 4 119 -6 0 -24 -10 -39 -21 -32 -23 -51 -19 -51 12 0 28 99 346 121 390
24 48 74 89 108 89 29 0 61 -27 61 -51 0 -8 -32 -97 -72 -199 -65 -169 -71
-192 -72 -261 -1 -66 2 -80 26 -117 36 -54 97 -88 180 -102 157 -25 319 37
374 142 16 31 19 118 4 118 -6 0 -24 -10 -39 -21 -32 -23 -51 -19 -51 12 0 11
29 113 64 227 36 114 67 226 71 249 15 95 -33 205 -109 252 -87 54 -235 50
-349 -11 -53 -29 -167 -136 -167 -159 0 -5 -4 -9 -10 -9 -5 0 -10 8 -10 18 -1
29 -38 101 -67 128 -67 62 -164 85 -268 64 -93 -19 -158 -54 -218 -120 l-55
-59 -5 40 c-6 47 -46 103 -89 125 -43 22 -159 26 -252 9z"/>
<path d="M3233 2551 c-94 -32 -165 -98 -214 -196 -27 -56 -37 -113 -23 -128 4
-3 19 0 35 8 37 20 46 19 60 -6 6 -12 31 -141 55 -288 24 -146 49 -281 55
-299 21 -64 85 -117 162 -136 l28 -7 -29 -24 c-42 -35 -131 -75 -168 -75 -29
0 -32 3 -38 39 -9 58 -63 132 -116 159 -126 63 -250 -10 -250 -148 1 -237 310
-324 623 -176 325 155 628 550 702 915 42 205 -19 357 -150 378 -48 8 -117
-20 -153 -62 -91 -103 -79 -330 22 -424 14 -14 26 -31 26 -39 0 -27 -72 -158
-108 -194 -41 -43 -68 -48 -82 -15 -5 12 -23 123 -40 247 -17 124 -35 248 -42
275 -13 62 -49 133 -80 162 -56 52 -179 68 -275 34z"/>
<path d="M1301 1245 c-67 -15 -98 -31 -144 -74 -44 -40 -60 -80 -60 -143 l0
-58 -33 0 c-87 0 -108 -41 -49 -96 26 -24 35 -40 35 -64 0 -32 -99 -370 -119
-409 -6 -11 -24 -29 -41 -41 -35 -25 -38 -45 -11 -60 12 -6 96 -10 204 -10
165 0 187 2 208 19 l23 18 -22 28 c-12 15 -22 35 -22 43 0 9 30 114 66 234
l67 218 32 0 c70 0 115 31 115 79 0 28 -15 35 -100 41 l-75 5 -9 37 c-13 50
15 123 54 143 43 22 49 19 43 -24 -10 -71 44 -121 130 -121 96 0 155 47 144
117 -8 46 -36 76 -100 104 -67 29 -239 36 -336 14z"/>
<path d="M3865 1249 c-63 -14 -114 -40 -121 -61 -4 -14 3 -29 21 -48 l27 -29
-21 -73 c-12 -40 -24 -78 -26 -85 -2 -8 -17 -5 -45 9 -24 12 -70 23 -108 25
-177 13 -321 -124 -368 -348 -27 -126 -5 -227 63 -291 80 -76 212 -78 300 -4
l30 26 19 -22 c50 -56 179 -76 259 -39 58 26 105 83 105 126 0 34 -12 46 -25
25 -8 -13 -45 -13 -45 1 0 6 45 158 100 338 55 179 100 340 100 357 0 39 -25
73 -66 90 -37 15 -137 17 -199 3z m-172 -392 c16 -11 14 -25 -37 -192 -31 -98
-62 -185 -70 -193 -9 -9 -24 -12 -40 -8 -19 5 -27 15 -32 44 -16 84 53 295
113 342 30 23 43 25 66 7z"/>
<path d="M1810 958 c-182 -64 -294 -186 -323 -351 -28 -166 58 -284 232 -317
319 -60 601 140 604 430 1 114 -43 184 -148 232 -42 19 -71 23 -175 25 -109 3
-133 1 -190 -19z m190 -108 c29 -53 -82 -402 -140 -443 -32 -22 -60 -6 -60 34
0 56 63 275 101 351 21 42 56 78 76 78 7 0 17 -9 23 -20z"/>
<path d="M2680 961 c-131 -42 -238 -130 -292 -238 -40 -83 -51 -206 -24 -278
23 -58 93 -120 160 -141 69 -21 208 -29 281 -15 86 16 196 73 257 133 98 99
149 262 118 378 -18 68 -97 141 -176 163 -82 23 -250 22 -324 -2z m180 -106
c19 -23 6 -108 -40 -247 -57 -171 -93 -228 -135 -212 -29 12 -22 89 21 233 37
122 64 183 97 219 24 26 40 28 57 7z"/>
</g>
</svg>
