<?xml version="1.0" standalone="no"?>
<!DOCTYPE svg PUBLIC "-//W3C//DTD SVG 20010904//EN"
 "http://www.w3.org/TR/2001/REC-SVG-20010904/DTD/svg10.dtd">
<svg version="1.0" xmlns="http://www.w3.org/2000/svg"
 width="500.000000pt" height="500.000000pt" viewBox="0 0 500.000000 500.000000"
 preserveAspectRatio="xMidYMid meet">
<metadata>
Created by potrace 1.14, written by Peter Selinger 2001-2017
</metadata>
<g transform="translate(0.000000,500.000000) scale(0.100000,-0.100000)"
fill="#000000" stroke="none">
<path d="M2945 4449 c-134 -26 -225 -73 -225 -117 0 -11 16 -32 35 -46 19 -15
37 -37 40 -49 5 -20 -304 -1040 -336 -1110 -7 -15 -34 -43 -61 -62 -53 -38
-64 -76 -29 -95 28 -15 615 -14 644 1 46 25 47 46 7 92 -19 22 -30 46 -30 63
0 45 145 490 173 533 31 47 90 77 126 65 53 -19 49 -43 -35 -259 -76 -194 -78
-203 -79 -287 0 -80 2 -89 30 -129 21 -29 50 -54 90 -74 56 -28 65 -30 179
-30 112 0 126 2 181 28 101 47 164 126 165 205 0 42 -20 50 -59 21 -28 -21
-33 -22 -47 -7 -14 14 -9 38 60 257 66 209 76 253 76 316 0 90 -34 163 -98
212 -57 44 -110 56 -212 51 -118 -7 -185 -35 -265 -110 -57 -53 -63 -56 -55
-31 113 345 129 432 88 493 -39 56 -88 74 -208 77 -58 1 -127 -3 -155 -8z"/>
<path d="M1735 4013 c-281 -60 -513 -270 -571 -519 -24 -105 -16 -244 19 -315
52 -108 145 -177 287 -216 51 -14 102 -18 235 -17 163 0 174 2 263 31 195 65
343 188 425 352 57 114 81 216 75 324 -10 189 -131 317 -344 362 -89 19 -297
18 -389 -2z m225 -182 c24 -46 4 -158 -66 -374 -55 -168 -103 -277 -138 -312
-29 -28 -77 -33 -96 -10 -49 59 95 560 192 670 45 50 89 61 108 26z"/>
<path d="M3150 2670 c-118 -17 -240 -142 -240 -246 0 -30 3 -35 18 -29 37 15
49 16 59 3 6 -7 28 -114 48 -238 51 -309 59 -325 179 -364 15 -5 16 -9 5 -22
-17 -21 -98 -61 -132 -65 -26 -4 -30 1 -52 54 -28 69 -45 90 -90 111 -66 32
-150 11 -185 -46 -17 -26 -20 -45 -17 -90 4 -74 37 -124 108 -163 50 -28 62
-30 154 -30 137 0 251 41 390 140 80 57 219 203 278 292 106 159 177 354 177
482 0 89 -15 135 -56 176 -32 32 -40 35 -94 35 -52 0 -64 -4 -94 -30 -44 -40
-68 -100 -68 -176 -1 -77 14 -123 59 -181 l36 -47 -31 -61 c-39 -81 -78 -125
-107 -125 -28 0 -24 -18 -64 267 -32 228 -56 296 -114 331 -37 23 -103 31
-167 22z"/>
<path d="M1445 2652 c-111 -33 -136 -64 -90 -112 15 -16 27 -39 27 -52 0 -22
-114 -403 -148 -494 -10 -28 -28 -50 -54 -68 -44 -29 -52 -59 -21 -76 25 -13
451 -13 486 0 29 11 43 37 29 55 -49 66 -50 45 12 246 31 101 65 201 76 222
22 45 79 77 106 61 30 -19 24 -56 -33 -206 -66 -176 -74 -221 -50 -283 30 -80
100 -115 224 -115 117 1 200 40 240 111 32 57 24 134 -9 94 -14 -17 -46 -20
-54 -6 -9 14 82 299 109 347 25 42 72 71 99 61 39 -15 36 -39 -24 -199 -72
-189 -80 -238 -52 -300 36 -81 107 -113 241 -106 71 3 95 9 139 33 30 16 62
42 73 57 23 31 35 88 25 114 -6 15 -8 16 -24 0 -20 -17 -48 -21 -56 -7 -3 4
21 95 54 200 38 121 60 210 60 239 -1 82 -55 165 -123 191 -16 6 -63 11 -105
11 -103 0 -176 -34 -250 -114 l-52 -58 -10 29 c-17 48 -37 77 -75 108 -33 27
-45 30 -120 34 -113 4 -169 -15 -244 -85 l-58 -53 -11 37 c-6 21 -25 51 -42
67 -30 29 -35 30 -133 32 -74 2 -118 -2 -162 -15z"/>
<path d="M1488 1576 c-56 -15 -112 -56 -134 -98 -9 -17 -16 -53 -16 -79 l1
-49 -38 0 c-66 0 -79 -35 -31 -80 17 -16 30 -38 30 -52 0 -12 -23 -95 -50
-183 -42 -137 -54 -164 -81 -187 -20 -17 -30 -32 -26 -42 6 -14 32 -16 182
-16 153 0 176 2 182 16 3 9 1 24 -5 33 -24 32 -24 43 1 124 14 45 40 128 57
185 29 93 34 102 56 102 14 0 40 7 59 14 29 12 35 20 35 44 0 35 -13 42 -80
42 -61 0 -74 15 -67 77 4 35 12 53 32 70 40 35 54 30 48 -16 -5 -33 -1 -44 20
-65 33 -33 99 -39 160 -14 82 32 52 138 -50 172 -56 19 -216 20 -285 2z"/>
<path d="M3606 1572 c-64 -22 -76 -41 -48 -76 20 -26 20 -30 6 -74 -8 -26 -17
-57 -20 -70 -5 -17 -11 -21 -23 -16 -67 28 -101 35 -147 31 -155 -16 -274
-175 -274 -369 0 -83 15 -123 63 -165 32 -28 90 -53 122 -53 29 0 88 24 115
47 l31 26 22 -20 c37 -34 70 -46 127 -47 70 -1 135 33 162 85 23 44 16 74 -13
56 -12 -7 -22 -8 -27 -2 -6 6 23 117 74 280 46 149 84 283 84 298 0 18 -10 39
-29 58 -27 27 -35 29 -103 29 -42 -1 -94 -8 -122 -18z m-96 -322 c0 -12 -80
-270 -93 -297 -8 -18 -17 -23 -36 -21 -24 3 -26 7 -29 61 -5 98 46 235 97 262
24 12 61 10 61 -5z"/>
<path d="M1926 1341 c-155 -51 -254 -171 -264 -317 -11 -171 96 -254 314 -242
118 7 188 34 263 104 80 74 115 151 116 256 0 69 -3 80 -30 119 -49 69 -107
93 -235 96 -82 2 -118 -1 -164 -16z m162 -123 c5 -79 -84 -327 -124 -342 -30
-12 -46 13 -39 61 17 112 85 295 119 318 31 22 41 14 44 -37z"/>
<path d="M2648 1341 c-82 -27 -154 -76 -198 -135 -56 -76 -73 -131 -68 -220 3
-65 7 -79 34 -113 16 -21 52 -49 80 -63 44 -23 61 -25 169 -25 102 0 129 4
177 23 80 32 160 107 200 190 28 57 33 76 33 143 0 70 -3 81 -30 120 -49 69
-107 93 -235 96 -81 2 -118 -1 -162 -16z m162 -121 c0 -86 -90 -330 -126 -344
-31 -12 -47 14 -40 64 9 62 53 205 82 262 39 77 84 86 84 18z"/>
</g>
</svg>
